<?xml version="1.0" encoding="UTF-8"?>
<svg id="Layer_2" data-name="Layer 2" xmlns="http://www.w3.org/2000/svg" xmlns:xlink="http://www.w3.org/1999/xlink" version="1.1" viewBox="0 0 6909.3 1046.4">
  <defs>
    <style>
      .cls-1 {
        fill: #0cc0df;
      }

      .cls-1, .cls-2, .cls-3 {
        stroke-width: 0px;
      }

      .cls-4 {
        clip-path: url(#clippath);
      }

      .cls-2 {
        fill: none;
      }

      .cls-3 {
        fill: #0466e8;
      }

      .cls-5 {
        clip-path: url(#clippath-1);
      }

      .cls-6 {
        clip-path: url(#clippath-2);
      }
    </style>
    <clipPath id="clippath">
      <rect class="cls-2" width="6909.3" height="1046.4"/>
    </clipPath>
    <clipPath id="clippath-1">
      <rect class="cls-2" width="4126.7" height="976.9"/>
    </clipPath>
    <clipPath id="clippath-2">
      <rect class="cls-2" width="4125.3" height="975.9"/>
    </clipPath>
  </defs>
  <g id="Layer_1-2" data-name="Layer 1-2">
    <g id="Layer_1-3" data-name="Layer 1-3">
      <g class="cls-4">
        <path class="cls-3" d="M7452.5,1046.4V-238H-543.1c77.9,0,325.3,141,399.4,170.5C6.1-7.9,160.3,48.6,319,101.9c317.2,106.1,652.5,198.3,1004.3,269.8,351.8,71.6,726.6,129.7,1105.7,143.9,401.7,14.9,797.1-42.2,1194-63,166.8-8.8,335-12.2,502.1-3.2,334.8,18.1,665.4,55.2,989.4,101.7,593.3,85.1,1169.9,202.1,1727.6,336.2,201.5,48.3,426.2,93.8,610.3,159.2h.1Z"/>
      </g>
      <g class="cls-5">
        <g class="cls-6">
          <path class="cls-1" d="M4125.2-239.1c13.6-18.9-4668.3,0-4668.3,0V975.3s3865.4-106.6,4668.3-1214.4h0Z"/>
        </g>
      </g>
    </g>
  </g>
</svg>