<?xml version="1.0" encoding="UTF-8"?>
<svg id="Layer_2" xmlns="http://www.w3.org/2000/svg" xmlns:xlink="http://www.w3.org/1999/xlink" viewBox="0 0 6909.3 1046.36">
  <defs>
    <style>
      .cls-1 {
        fill: #0cc0df;
      }

      .cls-1, .cls-2, .cls-3 {
        stroke-width: 0px;
      }

      .cls-4 {
        clip-path: url(#clippath);
      }

      .cls-2 {
        fill: none;
      }

      .cls-3 {
        fill: #0466e8;
      }

      .cls-5 {
        clip-path: url(#clippath-1);
      }

      .cls-6 {
        clip-path: url(#clippath-2);
      }
    </style>
    <clipPath id="clippath">
      <rect class="cls-2" y="0" width="6909.3" height="1046.36"/>
    </clipPath>
    <clipPath id="clippath-1">
      <rect class="cls-2" width="4126.7" height="976.91"/>
    </clipPath>
    <clipPath id="clippath-2">
      <rect class="cls-2" y="0" width="4125.3" height="975.92"/>
    </clipPath>
  </defs>
  <g id="Layer_1-2" data-name="Layer_1">
    <g id="Layer_1-3" data-name="Layer_1">
      <g class="cls-4">
        <path class="cls-3" d="M7452.5,1046.43V-238.03H-543.1c77.9,0,325.3,141.02,399.4,170.48C6.1-7.91,160.3,48.61,319,101.95c317.2,106.12,652.5,198.25,1004.3,269.75,351.8,71.57,726.6,129.72,1105.7,143.85,401.7,14.91,797.1-42.25,1194-63.02,166.8-8.76,335-12.22,502.1-3.18,334.8,18.09,665.4,55.18,989.4,101.67,593.3,85.14,1169.9,202.14,1727.6,336.23,201.5,48.33,426.2,93.83,610.3,159.18h.1Z"/>
      </g>
      <g class="cls-5">
        <g class="cls-6">
          <path class="cls-1" d="M4125.2-239.09c13.6-18.86-4668.3,0-4668.3,0V975.28s3865.4-106.61,4668.3-1214.37h0Z"/>
        </g>
      </g>
    </g>
  </g>
</svg>