<?xml version="1.0" encoding="UTF-8"?>
<svg xmlns="http://www.w3.org/2000/svg" xmlns:xlink="http://www.w3.org/1999/xlink" version="1.1" viewBox="0 0 6912 3456">
  <defs>
    <style>
      .cls-1 {
        fill: #0cc0df;
      }

      .cls-1, .cls-2, .cls-3, .cls-4 {
        stroke-width: 0px;
      }

      .cls-5 {
        clip-path: url(#clippath);
      }

      .cls-2 {
        fill: none;
      }

      .cls-6 {
        mask: url(#mask);
      }

      .cls-3 {
        fill: #0466e8;
      }

      .cls-7 {
        clip-path: url(#clippath-1);
      }

      .cls-8 {
        clip-path: url(#clippath-2);
      }

      .cls-4 {
        fill: #000;
        opacity: .7;
      }
    </style>
    <clipPath id="clippath">
      <rect class="cls-2" x="1.3" width="6909.3" height="1481"/>
    </clipPath>
    <mask id="mask" x="-691.2" y="-350.3" width="8294.4" height="4151.9" maskUnits="userSpaceOnUse">
      <g id="e952615666">
        <rect class="cls-4" x="-691.2" y="-345.6" width="8294.4" height="4147.2"/>
      </g>
    </mask>
    <clipPath id="clippath-1">
      <rect class="cls-2" x="1.3" width="4126.7" height="1382.7"/>
    </clipPath>
    <clipPath id="clippath-2">
      <rect class="cls-2" x="1.3" width="4125.3" height="1381.3"/>
    </clipPath>
  </defs>
  <!-- Generator: Adobe Illustrator 28.6.0, SVG Export Plug-In . SVG Version: 1.0.2 Build 54)  -->
  <g>
    <g id="Layer_1">
      <g class="cls-5">
        <path class="cls-3" d="M7453.8,1481.1V-336.9H-541.8c77.9,0,325.3,199.6,399.4,241.3C7.4-11.2,161.6,68.8,320.3,144.3c317.2,150.2,652.5,280.6,1004.3,381.8,351.8,101.3,726.6,183.6,1105.7,203.6,401.7,21.1,797.1-59.8,1194-89.2,166.8-12.4,335-17.3,502.1-4.5,334.8,25.6,665.4,78.1,989.4,143.9,593.3,120.5,1169.9,286.1,1727.6,475.9,201.5,68.4,426.2,132.8,610.3,225.3Z"/>
      </g>
      <g class="cls-6">
        <g class="cls-7">
          <g class="cls-8">
            <path class="cls-1" d="M4126.5-338.4c13.6-26.7-4668.3,0-4668.3,0v1718.8s3865.4-150.9,4668.3-1718.8Z"/>
          </g>
        </g>
      </g>
    </g>
  </g>
</svg>