<?xml version="1.0" encoding="UTF-8"?>
<svg id="Layer_2" xmlns="http://www.w3.org/2000/svg" xmlns:xlink="http://www.w3.org/1999/xlink" viewBox="0 0 6909.3 1481">
  <defs>
    <style>
      .cls-1 {
        fill: #0cc0df;
      }

      .cls-1, .cls-2, .cls-3 {
        stroke-width: 0px;
      }

      .cls-4 {
        clip-path: url(#clippath);
      }

      .cls-2 {
        fill: none;
      }

      .cls-3 {
        fill: #0466e8;
      }

      .cls-5 {
        clip-path: url(#clippath-1);
      }

      .cls-6 {
        clip-path: url(#clippath-2);
      }
    </style>
    <clipPath id="clippath">
      <rect class="cls-2" width="6909.3" height="1481"/>
    </clipPath>
    <clipPath id="clippath-1">
      <rect class="cls-2" width="4126.7" height="1382.7"/>
    </clipPath>
    <clipPath id="clippath-2">
      <rect class="cls-2" width="4125.3" height="1381.3"/>
    </clipPath>
  </defs>
  <g id="Layer_1-2" data-name="Layer_1">
    <g id="Layer_1-3" data-name="Layer_1">
      <g class="cls-4">
        <path class="cls-3" d="M7452.5,1481.1V-336.9H-543.1c77.9,0,325.3,199.6,399.4,241.3C6.1-11.2,160.3,68.8,319,144.3c317.2,150.2,652.5,280.6,1004.3,381.8,351.8,101.3,726.6,183.6,1105.7,203.6,401.7,21.1,797.1-59.8,1194-89.2,166.8-12.4,335-17.3,502.1-4.5,334.8,25.6,665.4,78.1,989.4,143.9,593.3,120.5,1169.9,286.1,1727.6,475.9,201.5,68.4,426.2,132.8,610.3,225.3h.1Z"/>
      </g>
      <g class="cls-5">
        <g class="cls-6">
          <path class="cls-1" d="M4125.2-338.4c13.6-26.7-4668.3,0-4668.3,0v1718.8s3865.4-150.9,4668.3-1718.8h0Z"/>
        </g>
      </g>
    </g>
  </g>
</svg>